<svg xmlns="http://www.w3.org/2000/svg" viewBox="0 0 750 500"><g id="freepik--background-simple--inject-9"><path d="M649.39,236.09c-11.7-34.76-44.86-62.61-81.52-63.36-46.94-1-89,39.11-135.5,32.66-26.9-3.73-49.22-22.61-66.95-43.17S332.7,118.45,311.93,101C273,68.22,215,60.21,168.67,81.17S90.06,151,89,201.85s8.94,109.54,52.66,143.22l22.11,16.2a310.45,310.45,0,0,0,152.34,58.59c23.52,2.37,43.72,6.8,66.89,7.4,56.2,1.45,113.76,3.88,165.33-18.49,33.64-14.59,64.7-37,84.76-67.65S661.1,270.84,649.39,236.09Z" style="fill:#f5f5f5"></path></g><g id="freepik--Table--inject-9"><path d="M681.26,468.78c0,.15-137.13.27-306.25.27s-306.27-.12-306.27-.27,137.1-.26,306.27-.26S681.26,468.64,681.26,468.78Z" style="fill:#263238"></path></g><g id="freepik--character-3--inject-9"><path d="M553.32,351.61c1-.21,9.16,37.16,8.09,51.69s-8.09,65.05-8.09,65.05H519.68l-6.07-71.49,1.15,71.49H469.55s-10.47-49.13-8.6-64,11.81-54,11.81-54Z" style="fill:#263238"></path><path d="M517,360.22a7.6,7.6,0,0,1,.07,1.39c0,.9,0,2.2,0,3.81-.07,3.22-.28,7.66-.69,12.55s-1,9.3-1.43,12.48c-.23,1.59-.44,2.88-.6,3.76a8.31,8.31,0,0,1-.3,1.37,6.64,6.64,0,0,1,.1-1.4c.11-1,.26-2.26.44-3.78.37-3.19.86-7.6,1.27-12.48s.68-9.31.84-12.51c.09-1.53.15-2.81.21-3.8A6.65,6.65,0,0,1,517,360.22Z" style="fill:#455a64"></path><path d="M523.07,363.24s.27-.1.75,0a3.06,3.06,0,0,1,1.75,1,3.28,3.28,0,0,1,.66,1.29,2.88,2.88,0,0,1-.12,1.68,3.3,3.3,0,0,1-3,2.1,3.25,3.25,0,0,1-2.93-2.23,2.85,2.85,0,0,1-.06-1.68,2.88,2.88,0,0,1,.74-1.25,2.71,2.71,0,0,1,1.85-.86,1.13,1.13,0,0,1,.73.15s-.27,0-.71,0a2.66,2.66,0,0,0-1.6.91,2.44,2.44,0,0,0-.5,2.52,2.82,2.82,0,0,0,2.49,1.87,2.86,2.86,0,0,0,2.56-1.76,2.57,2.57,0,0,0-.38-2.56,3.14,3.14,0,0,0-1.51-1.09C523.34,363.28,523.07,363.28,523.07,363.24Z" style="fill:#455a64"></path><path d="M558.33,369.51a3,3,0,0,1-.88.33,13.55,13.55,0,0,1-2.53.47,15.9,15.9,0,0,1-14.69-7A13.57,13.57,0,0,1,539,361.1a2.83,2.83,0,0,1-.3-.9c.09,0,.58,1.21,1.84,2.93a16.5,16.5,0,0,0,14.36,6.81C557,369.83,558.31,369.41,558.33,369.51Z" style="fill:#455a64"></path><path d="M481.41,190.31c-2.55,9.28-6.41,16.73-10.17,20.46s-7.79,8.1-7.65,13.4c.05,2.08.74,4.29-.17,6.16-1.18,2.43-4.32,3-6.68,4.28a11.2,11.2,0,0,0-5.29,10.1,16.2,16.2,0,0,0,5,10.61c2.93,2.95,7.57,5,11.21,3,2.19-1.22,3.44-3.59,4.55-5.84q8.6-17.49,15.56-35.72" style="fill:#263238"></path><path d="M504.87,150.57a23.92,23.92,0,0,1,41.68,16.26c-.07,6.21-2.5,12.73,0,18.43,1.73,4,5.75,7.09,6.3,11.46.65,5.06-3.68,9.65-3.46,14.74.15,3.33,2.24,6.27,4.64,8.57s5.19,4.22,7.39,6.71c6.11,6.95,6.5,17.93,1.88,25.94s-13.55,13.05-22.74,14.14S522,265.38,513.83,261c-5.3-2.87-10.28-6.67-13.43-11.81s-4.23-11.8-1.74-17.29" style="fill:#263238"></path><path d="M524.42,228s20.74,6.13,22.76,9.41,8.54,41.81,8.54,41.81L543,324.63s10.53,16.95,11,25.52c-23.54,15.19-50.1,10.94-77.91-1.23l-2-44.37-2.64-70.88,17.12-6Z" style="fill:#e0e0e0"></path><path d="M547.48,333.77a4.37,4.37,0,0,1-.76,0l-2.18-.15-8-.64-26.39-2.3-26.39-2.46-8-.8-2.17-.25a3.89,3.89,0,0,1-.75-.12,4,4,0,0,1,.76,0l2.18.14,8,.64,26.4,2.31,26.39,2.45,8,.81,2.17.24A5.25,5.25,0,0,1,547.48,333.77Z" style="fill:#FF725E"></path><path d="M523.14,283.79c0,.14-9.11.26-20.35.26s-20.35-.12-20.35-.26,9.11-.26,20.35-.26S523.14,283.64,523.14,283.79Z" style="fill:#FF725E"></path><path d="M550.53,253.34a9.21,9.21,0,0,1-1.61.16l-4.41.25c-3.73.21-8.87.51-14.54.95s-10.8.91-14.51,1.28l-4.4.42a9.31,9.31,0,0,1-1.62.09,10.39,10.39,0,0,1,1.6-.29c1-.16,2.53-.36,4.38-.59,3.7-.46,8.83-1,14.51-1.43s10.83-.69,14.56-.8c1.87,0,3.38-.08,4.42-.08A10.27,10.27,0,0,1,550.53,253.34Z" style="fill:#FF725E"></path><path d="M547.18,237.44,568,293.91l14-27.82,18.26,3.74-10.51,43.85A18.6,18.6,0,0,1,575,329.32h0a18.6,18.6,0,0,1-17.49-5.69L551,316.46Z" style="fill:#e0e0e0"></path><path d="M567.57,329.59a6.82,6.82,0,0,1-.15-1.42c-.07-.91-.13-2.23-.19-3.87-.11-3.27-.16-7.79,0-12.79s.46-9.51.76-12.76c.15-1.63.29-2.95.41-3.86a8.5,8.5,0,0,1,.23-1.4,6.42,6.42,0,0,1,0,1.42c-.06,1-.14,2.31-.24,3.86-.21,3.27-.46,7.77-.61,12.76s-.16,9.5-.14,12.76c0,1.56,0,2.86,0,3.88A8.38,8.38,0,0,1,567.57,329.59Z" style="fill:#FF725E"></path><path d="M594.47,295.13c-.05.14-5.17-1.68-11.43-4.06s-11.3-4.42-11.25-4.55,5.17,1.68,11.43,4.06S594.52,295,594.47,295.13Z" style="fill:#FF725E"></path><polygon points="604.61 263.37 595.85 269.83 586.12 267.44 588.46 264.86 604.61 263.37" style="fill:#ffbe9d"></polygon><polygon points="636.28 184.78 565.4 215.49 565.75 236.03 557.73 244.43 584.81 268.63 592.72 259.78 613.79 256.83 636.28 184.78" style="fill:#fafafa"></polygon><path d="M636.28,184.78c-.62,2-9.17,29.71-22.26,72.12l0,.15-.15,0-21.07,3,.15-.08L585,268.8l-.17.2-.19-.18-13.83-12.35-13.25-11.85-.2-.18.18-.19,8-8.4-.07.18c-.11-7.11-.22-14-.33-20.54v-.16l.15-.06,71-30.49L565.5,215.71l.14-.23c.12,6.57.24,13.44.36,20.54v.11l-.07.07-8,8.41v-.37l13.26,11.84L585,268.44l-.37,0,7.92-8.84.06-.07.09,0,21.08-2.93-.2.16C626.92,214.43,635.64,186.79,636.28,184.78Z" style="fill:#263238"></path><path d="M607.52,235.09a11.12,11.12,0,1,1-.88-15.7A11.12,11.12,0,0,1,607.52,235.09Z" style="fill:#263238"></path><path d="M636.28,184.78c.11.09-8.1,9.77-18.33,21.62s-18.61,21.37-18.72,21.28,8.1-9.77,18.33-21.62S636.17,184.69,636.28,184.78Z" style="fill:#263238"></path><path d="M418,429.67h0a17.71,17.71,0,0,1-1.47-24.94L549.74,253.94l26.42,23.62L443,428.2A17.72,17.72,0,0,1,418,429.67Z" style="fill:#FF725E"></path><rect x="560.75" y="239.7" width="14.48" height="41.68" transform="translate(-4.78 510.4) rotate(-48.21)" style="fill:#FF725E"></rect><rect x="631.77" y="181.3" width="7.72" height="7.72" transform="translate(267.38 -365.02) rotate(39.96)" style="fill:#FF725E"></rect><path d="M684.55,224.77c-.26.3-22.87-18.23-50.51-41.39s-49.84-42.19-49.59-42.49,22.87,18.22,50.51,41.39S684.8,224.47,684.55,224.77Z" style="fill:#FF725E"></path><path d="M685.67,225.71a2.28,2.28,0,1,1-.28-3.22A2.28,2.28,0,0,1,685.67,225.71Z" style="fill:#FF725E"></path><path d="M586.2,142.36a2.29,2.29,0,1,1-.28-3.22A2.29,2.29,0,0,1,586.2,142.36Z" style="fill:#FF725E"></path><polygon points="549.74 253.94 576.16 277.56 572.6 281.59 548.47 255.38 549.74 253.94" style="opacity:0.30000000000000004"></polygon><polygon points="565.79 248.87 565.79 267.77 569.64 271.72 569.64 252.3 565.79 248.87" style="fill:#fff;opacity:0.5"></polygon><path d="M597.5,240.05l9.7,3.87,2.08,7.82-4.67,11.63-17.14,2.5,5-5.13-.65-4.47s-4.78-1.5-4.9-2.23.59-3.19,1.33-3.31,5.75,1.75,5.75,1.75-5.94-4.7-5.77-5.45.8-2.69,2-2.9,10.77,4.3,10.77,4.3l1.55,3.55,1.36-5.67S595.4,243.92,597.5,240.05Z" style="fill:#ffbe9d"></path><path d="M596.28,258.37c.06,0,.24-.33.33-1a5.18,5.18,0,0,0-.29-2.45,5.27,5.27,0,0,0-1.37-2.05c-.48-.42-.85-.57-.88-.52a11.16,11.16,0,0,1,1.78,2.74A11,11,0,0,1,596.28,258.37Z" style="fill:#eb996e"></path><path d="M600.89,256.68a21.12,21.12,0,0,1-.38-2.54,11.29,11.29,0,0,0-.49-2.82,4.32,4.32,0,0,0-.89-1.5,4.71,4.71,0,0,0-1.59-1c-2.32-.84-4.41-1.52-5.94-2a12.58,12.58,0,0,0-2.5-.69,13.93,13.93,0,0,0,2.39,1c1.49.58,3.59,1.32,5.86,2.15a4.05,4.05,0,0,1,1.42.87,3.89,3.89,0,0,1,.82,1.32,12.05,12.05,0,0,1,.56,2.7A5.26,5.26,0,0,0,600.89,256.68Z" style="fill:#eb996e"></path><path d="M603.12,254.93a4,4,0,0,0-.07-1.92c-.17-1-.42-1.85-.55-1.83s-.11.88.06,1.92S603,255,603.12,254.93Z" style="fill:#eb996e"></path><path d="M530.35,324.22s15.55-5.34,15.92-5.51,11-5.12,10.08-8c0,0,3-2.39,2.09-3.73l-4.26,1.79s6-3.91,5-7.42c0,0,.63-1.19,0-1.93s-3.76,1.49-6.08,2.89l-4.48,1.8a9.38,9.38,0,0,1-6.14.3h0a2,2,0,0,1-1.35-2.28,19.58,19.58,0,0,0-.32-10.49s-1.11.39-1.87,2.79c-1,3.07-4,5.44-5.18,7.46-.64,1.16-1.67,3-2.42,4.38a4.8,4.8,0,0,1-2.94,2.29l1.07,8.1Z" style="fill:#ffbe9d"></path><path d="M547.21,309.55a1.89,1.89,0,0,0,.54-.17c.34-.12.83-.32,1.42-.58a32.24,32.24,0,0,0,4.44-2.42,32.77,32.77,0,0,0,4-3.07c.48-.44.86-.8,1.11-1.06a3,3,0,0,0,.37-.43,2.07,2.07,0,0,0-.44.35l-1.16,1a43.38,43.38,0,0,1-4,3,44.87,44.87,0,0,1-4.38,2.47l-1.38.65A2,2,0,0,0,547.21,309.55Z" style="fill:#eb996e"></path><path d="M547.48,312.65a4.78,4.78,0,0,0,1.15-.38,19.31,19.31,0,0,0,2.59-1.32,26.35,26.35,0,0,0,2.39-1.64,5,5,0,0,0,.92-.79c0-.06-1.52,1-3.45,2.21-1,.58-1.86,1-2.53,1.37A6.73,6.73,0,0,0,547.48,312.65Z" style="fill:#eb996e"></path><path d="M547.35,316.37a8.31,8.31,0,0,0,1.46-.56,28.29,28.29,0,0,0,3.32-1.8,30.8,30.8,0,0,0,3.06-2.21,7.75,7.75,0,0,0,1.16-1.06,11.37,11.37,0,0,0-1.27.91c-.77.58-1.85,1.36-3.09,2.14a36.94,36.94,0,0,1-3.26,1.85A11,11,0,0,0,547.35,316.37Z" style="fill:#eb996e"></path><path d="M530.35,324.22l-57.72,17.36a34.46,34.46,0,0,1-20.11-34.44c1.82-20.4,4.22-47.23,4.93-54,1.18-11.23,14.06-19.5,14.06-19.5,17.7,1.15,13.78,36.16,13.78,36.16l-7.13,40.27,50.19-2Z" style="fill:#e0e0e0"></path><path d="M478.16,310.1a10.23,10.23,0,0,1,.07-1.61c.07-1,.24-2.52.45-4.37.45-3.67,1.23-8.73,2.27-14.29s2.07-10.57,2.89-14.18c.4-1.81.75-3.27,1-4.27a8.08,8.08,0,0,1,.45-1.55,11,11,0,0,1-.25,1.59c-.22,1.11-.5,2.56-.84,4.3-.72,3.63-1.71,8.65-2.74,14.2s-1.87,10.6-2.42,14.25c-.24,1.77-.45,3.23-.61,4.34A9.06,9.06,0,0,1,478.16,310.1Z" style="fill:#263238"></path><path d="M528.35,308.09a1.86,1.86,0,0,1-.54.08l-1.57.14c-1.37.1-3.34.22-5.78.35-4.88.25-11.63.48-19.08.7l-19.08.54-5.78.19-1.57,0a1.8,1.8,0,0,1-.55,0,1.86,1.86,0,0,1,.54-.08l1.57-.14c1.37-.1,3.34-.23,5.78-.35,4.88-.25,11.63-.48,19.08-.7l19.07-.54,5.79-.19,1.57,0A1.8,1.8,0,0,1,528.35,308.09Z" style="fill:#263238"></path><path d="M480.35,294.83a4,4,0,0,1-1.06,0l-2.88-.22c-2.43-.18-5.78-.42-9.49-.57s-7.06-.21-9.5-.22l-2.88,0a4.5,4.5,0,0,1-1.06-.07,3.93,3.93,0,0,1,1-.13c.68-.06,1.67-.1,2.89-.14,2.44-.08,5.81-.09,9.53.07s7.07.44,9.5.73c1.21.13,2.18.27,2.86.37A4.85,4.85,0,0,1,480.35,294.83Z" style="fill:#FF725E"></path><path d="M485.29,267.05c0,.14-6.55,0-14.61-.36s-14.59-.72-14.58-.87,6.54,0,14.6.35S485.29,266.9,485.29,267.05Z" style="fill:#FF725E"></path><path d="M457.93,328.28a4.26,4.26,0,0,1,.55-.92c.39-.58,1-1.39,1.74-2.37a60.33,60.33,0,0,1,6.6-7.09,59.21,59.21,0,0,1,7.67-5.92c1-.67,1.9-1.19,2.51-1.51a4,4,0,0,1,1-.47c0,.07-1.26.87-3.28,2.29a72.63,72.63,0,0,0-14.18,12.94C458.92,327.11,458,328.33,457.93,328.28Z" style="fill:#FF725E"></path><path d="M499.34,333.77c-.14,0-1.11-5.39-2.17-12.1s-1.8-12.17-1.66-12.19,1.12,5.4,2.18,12.11S499.49,333.75,499.34,333.77Z" style="fill:#FF725E"></path><g style="opacity:0.30000000000000004"><path d="M472.28,341.58,536.92,322c-4.84,6.38-14.28,12.32-21.4,16s-14.73,6.26-22.31,8.84c-4.12,1.4-8.34,2.82-12.69,2.78s-8.6-1.29-10.89-5Z"></path></g><path d="M483.42,175.41a6.83,6.83,0,0,0-2.38-8.13,7.34,7.34,0,0,0-8.56.43A8,8,0,0,0,470,176a8.14,8.14,0,0,0,15.84-1.14" style="fill:#263238"></path><path d="M493.08,158.53l0,4.72-1,70.71c-.12,8.21,6.85,14.85,15.64,14.9h0c8.87.06,16.27-6.61,16.53-14.9.26-8.7.7-17.86.7-17.86s11.26-1.55,14-16.11c1.36-7.24,1.32-19.18,1-29a15.45,15.45,0,0,0-16.64-14.87Z" style="fill:#ffbe9d"></path><path d="M534.93,179.56a1.87,1.87,0,0,1-1.86,1.84,1.8,1.8,0,0,1-1.89-1.75,1.89,1.89,0,0,1,1.86-1.84A1.79,1.79,0,0,1,534.93,179.56Z" style="fill:#263238"></path><path d="M537.13,177.18c-.24.24-1.64-.86-3.65-.91s-3.53.92-3.74.67.14-.55.8-1a5.15,5.15,0,0,1,3-.83,5,5,0,0,1,2.9,1C537.05,176.62,537.24,177.07,537.13,177.18Z" style="fill:#263238"></path><path d="M515.18,179.36a1.89,1.89,0,0,1-1.86,1.85,1.8,1.8,0,0,1-1.89-1.75,1.87,1.87,0,0,1,1.86-1.84A1.8,1.8,0,0,1,515.18,179.36Z" style="fill:#263238"></path><path d="M517.27,177c-.24.23-1.63-.86-3.65-.91s-3.52.92-3.74.67.15-.55.81-1a5.15,5.15,0,0,1,3-.84,5,5,0,0,1,2.9,1C517.19,176.45,517.39,176.9,517.27,177Z" style="fill:#263238"></path><path d="M524.19,192.18a12.79,12.79,0,0,1,3.29-.5c.52,0,1-.13,1.11-.48a2.61,2.61,0,0,0-.31-1.54l-1.41-4c-2-5.65-3.37-10.29-3.14-10.37s2,4.44,4,10.09c.48,1.39.93,2.72,1.36,4a3.06,3.06,0,0,1,.21,2,1.31,1.31,0,0,1-.87.73,3.65,3.65,0,0,1-.88.1A13.49,13.49,0,0,1,524.19,192.18Z" style="fill:#263238"></path><path d="M524.92,216.1a37.15,37.15,0,0,1-19.44-5.76s4.47,10.18,19.15,9.21Z" style="fill:#eb996e"></path><path d="M523.2,197a3.64,3.64,0,0,0-3.22-1.44,3.32,3.32,0,0,0-2.33,1.17,2.11,2.11,0,0,0-.23,2.4,2.45,2.45,0,0,0,2.63.74,7.65,7.65,0,0,0,2.62-1.47,2.36,2.36,0,0,0,.6-.58.66.66,0,0,0,0-.75" style="fill:#eb996e"></path><path d="M518.21,193.41c.33,0,.27,2.18,2.1,3.79s4.17,1.43,4.18,1.74c0,.13-.53.41-1.52.41a5.52,5.52,0,0,1-3.49-1.33,4.72,4.72,0,0,1-1.62-3.17C517.8,193.93,518.06,193.39,518.21,193.41Z" style="fill:#263238"></path><path d="M518,169.11c-.21.54-2.22.23-4.6.45s-4.31.81-4.61.31c-.13-.24.22-.75,1-1.26a7.71,7.71,0,0,1,3.45-1.1,7.81,7.81,0,0,1,3.57.52C517.68,168.41,518.11,168.85,518,169.11Z" style="fill:#263238"></path><path d="M536.55,171.31c-.37.45-1.75-.06-3.42-.13s-3.1.22-3.41-.27c-.14-.23.1-.69.73-1.1a4.93,4.93,0,0,1,5.5.32C536.53,170.62,536.71,171.1,536.55,171.31Z" style="fill:#263238"></path><path d="M511.48,153.89c3.91,5.2-.16,12.56-4.66,17.25s-10,10.14-8.77,16.52c1.43,7.41,11.55,12.15,10.05,19.54-.55,2.69-2.68,5-2.69,7.74,0,5,6.41,7.38,8.26,12,2.54,6.32-4.43,12.62-4.54,19.43-.06,3.86,2.13,7.47,2.25,11.33.24,7.91-9.12,13.71-16.8,11.76S481.65,260,480,252.27s.87-18.62,2.11-26.44l-13.3,3.09c-2.48-2.37.91-4.88,1.47-8.25,1.4-8.47,7-15.64,9.61-23.8,2.31-7.13,2.33-14.77,3.34-22.2s3.31-15.17,9-20.08,15.5-5.5,20.09.43" style="fill:#263238"></path><path d="M481.66,177.92a23.22,23.22,0,0,0,5.86.18,25,25,0,0,0,12.72-5.76,53.48,53.48,0,0,0,9.29-10.71c1-1.45,1.82-2.66,2.44-3.58a9.85,9.85,0,0,1,.94-1.28,8.85,8.85,0,0,1-.77,1.39c-.52.88-1.3,2.14-2.3,3.67a49.32,49.32,0,0,1-9.27,10.91,24.43,24.43,0,0,1-13,5.72,16.09,16.09,0,0,1-4.36-.15,10.4,10.4,0,0,1-1.15-.25C481.79,178,481.65,177.94,481.66,177.92Z" style="fill:#455a64"></path><path d="M499,179.88a7.7,7.7,0,0,1-2.13,1.49,18.35,18.35,0,0,1-6,2,18.12,18.12,0,0,1-6.29-.19,8,8,0,0,1-2.47-.81c0-.09,1,.21,2.54.45a20.53,20.53,0,0,0,12-1.76C498.12,180.36,498.94,179.81,499,179.88Z" style="fill:#455a64"></path><path d="M546.54,170.05a8.71,8.71,0,0,1-7.81-4.63,21.51,21.51,0,0,0,3.52,3A21,21,0,0,0,546.54,170.05Z" style="fill:#455a64"></path><path d="M545.6,175a5.19,5.19,0,0,1-5.22-1.3c.09-.12,1.12.53,2.55.87S545.58,174.82,545.6,175Z" style="fill:#455a64"></path><path d="M482.76,181.1a10.7,10.7,0,0,1-.42-4.84,10.94,10.94,0,0,1,1.26-4.7c.15.05-.52,2.11-.74,4.74S482.91,181.08,482.76,181.1Z" style="fill:#FF725E"></path></g><g id="freepik--character-2--inject-9"><path d="M344.53,349.94c-1-.22-9.06,37.7-8,52.45s8,66,8,66h82.93s10.37-49.85,8.52-64.95-11.7-54.8-11.7-54.8Z" style="fill:#263238"></path><path d="M333.93,278.25,322.08,224.9l-.69-8.84s-2.71-19.8-2.73-21.73c0-2.24-1.1-2.77-1.93-2.7-1.28.1-2.17,1.69-2.22,3.61,0,.66.19,11.14.19,11.14a25.41,25.41,0,0,0-2.06-2.81c-1.57-1.94-5.22-3-9-2.86s-4.76.53-4.77,2a1.85,1.85,0,0,0,.75,1.4,3.62,3.62,0,0,0,2.47.82c6-.17,7.63,3,7.63,3l.09,1.15s-3.67-2.56-6.55-1.43a3.66,3.66,0,0,0-1.15.73,4.69,4.69,0,0,0-4,7,2,2,0,0,0,1.9,1.15,2.49,2.49,0,0,0,1.05-.66,4.32,4.32,0,0,1,.53-.4l.7,3.21s2,7.1,2.47,10.29L308,281.88a13.14,13.14,0,0,0,14.13,12.31h0A13.13,13.13,0,0,0,333.93,278.25Z" style="fill:#ffbe9d"></path><path d="M320.35,224.19a2.7,2.7,0,0,1-2.83-1.44c-.61-1-.87-2.11-1.4-3.11-1.59-3-5.38-4.42-6.82-7.5-.2-.43-.32-1,.06-1.31s.85-.07,1.23.14l9.93,5.36" style="fill:#ffbe9d"></path><path d="M320.52,216.33a4.23,4.23,0,0,0-1-.69c-.67-.41-1.66-1-2.88-1.67l-4.31-2.4-1.25-.69a2.22,2.22,0,0,0-1.63-.44.94.94,0,0,0-.64.85,2,2,0,0,0,.17.91,7.41,7.41,0,0,0,.87,1.42c1.38,1.76,3.16,2.85,4.45,4.13a8.48,8.48,0,0,1,1.58,2c.39.69.63,1.43.92,2.08a4,4,0,0,0,2.32,2.43c.81.24,1.26,0,1.24-.06a3.11,3.11,0,0,1-1.16-.17,3.86,3.86,0,0,1-2-2.38,22.08,22.08,0,0,0-.87-2.15,8.7,8.7,0,0,0-1.64-2.16c-1.32-1.35-3.08-2.47-4.35-4.11a6.6,6.6,0,0,1-.79-1.28c-.19-.42-.17-.86.08-.91s.72.16,1.14.39l1.26.67,4.37,2.28c1.25.64,2.27,1.15,3,1.49A4.5,4.5,0,0,0,320.52,216.33Z" style="fill:#eb996e"></path><path d="M310,209.14a4.54,4.54,0,0,0-.71-2,3.64,3.64,0,0,0-1.83-1.31,9.31,9.31,0,0,0-2.84-.37,14.81,14.81,0,0,1-3-.23,4.77,4.77,0,0,1-2.21-1.07,1.86,1.86,0,0,1-.61-1.55A1.18,1.18,0,0,1,299,202s0,.21,0,.58a1.74,1.74,0,0,0,.65,1.32,4.7,4.7,0,0,0,2.09.92,16.29,16.29,0,0,0,2.89.18,9,9,0,0,1,2.95.43,3.79,3.79,0,0,1,2,1.5,3.48,3.48,0,0,1,.52,1.57C310.07,208.93,310,209.14,310,209.14Z" style="fill:#eb996e"></path><path d="M314.54,194.5a11.77,11.77,0,0,1,.06,2.08v5c0,1.88,0,3.58.07,5a11.13,11.13,0,0,1,0,2.08,9.6,9.6,0,0,1-.27-2.06c-.1-1.29-.18-3.07-.2-5s0-3.74.12-5A9.62,9.62,0,0,1,314.54,194.5Z" style="fill:#eb996e"></path><path d="M307.65,211.52a2.49,2.49,0,0,1-.61-.23,2,2,0,0,0-1.61-.06,1,1,0,0,0-.53.88,5.49,5.49,0,0,0,.11,1.35,2.33,2.33,0,0,1-.23,1.65,2,2,0,0,1-1.59.84,2.25,2.25,0,0,1-1.64-.69,2.82,2.82,0,0,1-.79-1.45,9.18,9.18,0,0,1,0-2.68,5.35,5.35,0,0,1,.51-1.73c.21-.38.41-.53.42-.51s-.12.2-.27.58a6,6,0,0,0-.37,1.7,9.84,9.84,0,0,0,.07,2.57,2.25,2.25,0,0,0,2.05,1.8,1.6,1.6,0,0,0,1.26-.66,2,2,0,0,0,.19-1.37,5.88,5.88,0,0,1-.07-1.45,1.31,1.31,0,0,1,.74-1.09,2,2,0,0,1,1.81.18C307.48,211.35,307.67,211.5,307.65,211.52Z" style="fill:#eb996e"></path><path d="M301.72,214.94s.08.22-.06.59a1.78,1.78,0,0,1-1.2,1.09,2.43,2.43,0,0,1-2.3-.68,4,4,0,0,1-1.06-2.75,4.8,4.8,0,0,1,.87-2.8,4.52,4.52,0,0,1,1.85-1.52,4.23,4.23,0,0,1,1.56-.39,1.28,1.28,0,0,1,.59.05,7.62,7.62,0,0,0-2,.6,4.55,4.55,0,0,0-1.67,1.47,4.62,4.62,0,0,0-.76,2.59,3.68,3.68,0,0,0,.91,2.48,2.16,2.16,0,0,0,2,.67,1.76,1.76,0,0,0,1.13-.87C301.68,215.15,301.68,214.94,301.72,214.94Z" style="fill:#eb996e"></path><path d="M309,221.86a1.83,1.83,0,0,1,1,0,3.88,3.88,0,0,1,2.19,1.29l-.35.11a10.91,10.91,0,0,1,.22-1.4,9,9,0,0,1,2.11-4.39,22.89,22.89,0,0,0-1.71,4.48c-.1.47-.17.93-.22,1.35l-.06.47-.29-.36a4.06,4.06,0,0,0-2-1.31A7.67,7.67,0,0,1,309,221.86Z" style="fill:#eb996e"></path><path d="M308.61,204c.1,0-.29.8-1.21,1.2s-1.74.21-1.71.1.75-.11,1.54-.48S308.52,204,308.61,204Z" style="fill:#eb996e"></path><path d="M429,232.94c4.34,0,14.77,12.33,16.59,31.06.83,8.58,5.13,43.71,7.21,60.6a16.85,16.85,0,0,1-6.86,15.7c-11.23,8.15-33.7,21-63.6,20.62L364.2,345.73,423,321l0-1.34,2.56-2.81-7.34-45S411.4,232.94,429,232.94Z" style="fill:#FF725E"></path><path d="M413.67,153.79c.22,6.09,8.33,9.77,8.23,15.86,0,2.62-1.67,5-2,7.56-.43,3.48,1.52,6.77,2.24,10.21,1.49,7.09-2.63,14.56-8.74,18.44s-13.79,4.62-21,3.63" style="fill:#263238"></path><path d="M364.68,152.3c.24,3.27-1.92,6.18-4.09,8.63s-4.6,5-5.07,8.25c-.83,5.75,4.8,11.08,3.64,16.77-.63,3.05-3.12,5.5-3.57,8.58s1.17,5.89,3.15,8.16,4.27,1.93,6,4.38a24.54,24.54,0,0,0,7.59,6.75c6.31,3.45,13.87-1.54,16.91-2.44" style="fill:#263238"></path><path d="M414.89,157.29c.08-3-2.66-5.25-5.42-6.33s-5.82-1.5-8.28-3.15c-2.18-1.47-3.64-3.75-5.48-5.62A18.24,18.24,0,0,0,365,150.56c-1.06,4.22-.34,9.21,3,12,3.86,3.26,9.58,2.53,14.52,1.52s10.55-2,14.68.9c2.49,1.75,3.92,4.6,5.44,7.23s3.43,5.33,6.31,6.32,6.79-.72,6.9-3.76" style="fill:#263238"></path><path d="M375.5,226.31c0-6.8-.08-13.43-.08-13.39s-10.8-1.82-13-15.92c-1.09-7-.72-18.5-.1-27.9.55-8.45,6.17-18.81,14.6-17.9l26.29,6.7a5,5,0,0,1,4.43,5h0l-2.41,63.84a14.86,14.86,0,0,1-15.15,14.3h0A14.86,14.86,0,0,1,375.5,226.31Z" style="fill:#ffbe9d"></path><path d="M366.78,177.16a1.82,1.82,0,0,0,1.74,1.83,1.73,1.73,0,0,0,1.87-1.63,1.82,1.82,0,0,0-1.74-1.83A1.74,1.74,0,0,0,366.78,177.16Z" style="fill:#263238"></path><path d="M364.79,175.09c.22.23,1.59-.78,3.54-.77s3.37,1,3.58.75-.13-.53-.75-1a4.9,4.9,0,0,0-2.86-.9,4.79,4.79,0,0,0-2.82.91C364.88,174.56,364.68,175,364.79,175.09Z" style="fill:#263238"></path><path d="M385.67,177.65a1.8,1.8,0,0,0,1.74,1.82,1.73,1.73,0,0,0,1.87-1.62,1.82,1.82,0,0,0-1.74-1.83A1.73,1.73,0,0,0,385.67,177.65Z" style="fill:#263238"></path><path d="M383.91,175.49c.22.24,1.59-.77,3.54-.76s3.37,1,3.58.75-.12-.54-.75-1a5,5,0,0,0-2.86-.89,4.79,4.79,0,0,0-2.82.9C384,175,383.8,175.39,383.91,175.49Z" style="fill:#263238"></path><path d="M376.82,189.9a12.87,12.87,0,0,0-3.16-.57c-.5-.06-1-.16-1.05-.49a2.53,2.53,0,0,1,.33-1.48l1.48-3.78c2.05-5.38,3.54-9.8,3.32-9.88s-2.06,4.21-4.11,9.59l-1.41,3.81A2.86,2.86,0,0,0,372,189a1.23,1.23,0,0,0,.82.73,3.08,3.08,0,0,0,.84.12A12.72,12.72,0,0,0,376.82,189.9Z" style="fill:#263238"></path><path d="M375.42,212.92a35.91,35.91,0,0,0,18.89-5c-.16,0-5.2,9.79-18.71,8.32Z" style="fill:#eb996e"></path><path d="M377.63,194.59a3.49,3.49,0,0,1,3.14-1.29,3.18,3.18,0,0,1,2.21,1.19,2,2,0,0,1,.15,2.32,2.37,2.37,0,0,1-2.55.64A7.34,7.34,0,0,1,378.1,196a2.2,2.2,0,0,1-.56-.58.63.63,0,0,1,0-.72" style="fill:#FF725E"></path><path d="M382.54,191.26c-.32,0-.33,2.09-2.14,3.59s-4.06,1.26-4.07,1.55c0,.13.5.41,1.45.44a5.26,5.26,0,0,0,3.4-1.18,4.56,4.56,0,0,0,1.65-3C382.92,191.77,382.68,191.25,382.54,191.26Z" style="fill:#263238"></path><path d="M383,172.09c.19.52,2.13.28,4.41.56s4.13.9,4.44.43c.13-.23-.19-.72-.93-1.24a7.81,7.81,0,0,0-6.74-.76C383.38,171.42,383,171.83,383,172.09Z" style="fill:#263238"></path><path d="M365.51,169.46c.35.44,1.69,0,3.3,0s3,.3,3.29-.16c.14-.22-.08-.67-.67-1.09a4.64,4.64,0,0,0-2.68-.73,4.54,4.54,0,0,0-2.63.89C365.55,168.79,365.36,169.24,365.51,169.46Z" style="fill:#263238"></path><path d="M409.17,205.06c-3.88.78-4.22-1.19-7.12-3.88a12.72,12.72,0,0,1-3.89-10.74c.43-3.47,2.3-7,1.1-10.26-1.59-4.34-7.66-5.67-9.27-10-.94-2.51-.1-5.45-1.16-7.92-1-2.31-3.43-3.65-5.8-4.5s-4.92-1.45-6.91-3-3.23-4.47-1.95-6.64a133.25,133.25,0,0,1,30.8,7.49c2.31.86,4.72,1.89,6.08,3.93s1.37,5,1.25,7.56l-1.77,38" style="fill:#263238"></path><path d="M418,176.3a10.82,10.82,0,0,1,20.47-3.74c2,4,1.28,8.82-.55,12.87-2.17,4.8-6.62,9.19-11.89,8.95-5-.22-8.95-4.58-10.38-9.33s-.85-9.84-.26-14.77" style="fill:#263238"></path><path d="M420.8,195.61a2.42,2.42,0,0,0,.73-.82,6.89,6.89,0,0,0,1.06-2.82,13.84,13.84,0,0,0-.13-4.45c-.29-1.66-.85-3.4-1.25-5.24a13.07,13.07,0,0,1-.31-5.22c.29-1.57,1-2.9,1.35-4.14a5.3,5.3,0,0,0,.08-3,1.83,1.83,0,0,0-.54-1c-.05,0,.17.36.31,1a5.59,5.59,0,0,1-.27,2.83,35,35,0,0,0-1.49,4.16,13.07,13.07,0,0,0,.26,5.46c.42,1.88,1,3.61,1.3,5.21a13.8,13.8,0,0,1,.25,4.29A8.87,8.87,0,0,1,420.8,195.61Z" style="fill:#455a64"></path><path d="M421,178.68a6.8,6.8,0,0,0,2.16,2.12,12.36,12.36,0,0,0,13.93.24,6.8,6.8,0,0,0,2.24-2c-.08-.08-.88.76-2.47,1.67a12.87,12.87,0,0,1-13.46-.24C421.86,179.47,421.08,178.61,421,178.68Z" style="fill:#455a64"></path><path d="M421.7,180.89a6.49,6.49,0,0,0,1.19,2.21,15.31,15.31,0,0,0,4.49,4.1,15.46,15.46,0,0,0,5.73,2.05,6.33,6.33,0,0,0,2.51,0,24.08,24.08,0,0,0-2.44-.44,18.18,18.18,0,0,1-5.48-2.15,17.69,17.69,0,0,1-4.46-3.83C422.27,181.67,421.79,180.84,421.7,180.89Z" style="fill:#455a64"></path><path d="M418.15,200.33a.78.78,0,0,0,.16-.18,5.13,5.13,0,0,0,.38-.56,7.24,7.24,0,0,0,.93-2.47,8.63,8.63,0,0,0-.22-4.16,8,8,0,0,0-3.28-4.41c-1.68-1.18-3.85-2-5.24-3.88a4.21,4.21,0,0,1-.76-3.31,19.08,19.08,0,0,1,1.22-3.65,10.52,10.52,0,0,0-.18-8.42,9.18,9.18,0,0,0-2.86-3.55,11.13,11.13,0,0,0-4.32-1.8c-1.53-.34-3.05-.55-4.46-1a8.71,8.71,0,0,1-3.74-2.05,6.13,6.13,0,0,1-1.62-3.69,31,31,0,0,0-.67-4.1,14,14,0,0,0-3.8-6.67,11.12,11.12,0,0,0-6-3,9,9,0,0,0-5.45.82A8.65,8.65,0,0,0,375.1,147a7.35,7.35,0,0,0-1.1,2.39,3.67,3.67,0,0,0-.14.91,9,9,0,0,1,1.44-3.16,8.46,8.46,0,0,1,3.11-2.56,8.63,8.63,0,0,1,5.22-.7,10.74,10.74,0,0,1,5.7,2.91,13.67,13.67,0,0,1,3.61,6.44,31,31,0,0,1,.63,4,6.84,6.84,0,0,0,1.78,4,9.19,9.19,0,0,0,4,2.21c1.48.45,3,.65,4.5,1a10.74,10.74,0,0,1,4.1,1.68,8.59,8.59,0,0,1,2.67,3.32,9.93,9.93,0,0,1,.2,7.95,19.42,19.42,0,0,0-1.23,3.78,4.77,4.77,0,0,0,.89,3.7c1.54,2,3.78,2.81,5.4,3.93a7.64,7.64,0,0,1,3.2,4.16,8.67,8.67,0,0,1,.32,4A9.47,9.47,0,0,1,418.15,200.33Z" style="fill:#455a64"></path><path d="M417.21,161a1.53,1.53,0,0,0,.17-.65,3,3,0,0,0-.47-1.87,4.79,4.79,0,0,0-2.35-1.95,7.42,7.42,0,0,0-4.05-.13c-1.48.28-3,.87-4.69,1.19a6.22,6.22,0,0,1-5.1-.8c-1.49-1.14-2.24-3.11-3-5.07a21.24,21.24,0,0,0-3.26-5.81,19.55,19.55,0,0,0-10.67-6.9,11.23,11.23,0,0,0-5.63.15A8.71,8.71,0,0,0,374,141.8a6.51,6.51,0,0,0-1.1,6.75,4.82,4.82,0,0,0,1.06,1.61,2.36,2.36,0,0,0,.52.43,7.16,7.16,0,0,1-1.36-2.13,6.27,6.27,0,0,1-.34-2.89,6.2,6.2,0,0,1,1.55-3.49,8.37,8.37,0,0,1,3.94-2.46,10.76,10.76,0,0,1,5.36-.08,19.1,19.1,0,0,1,10.3,6.73,20.55,20.55,0,0,1,3.18,5.64c.78,2,1.55,4,3.24,5.31a5.43,5.43,0,0,0,2.78,1,9.28,9.28,0,0,0,2.76-.19c1.74-.37,3.25-1,4.68-1.27a7.1,7.1,0,0,1,3.84,0,4.6,4.6,0,0,1,2.27,1.75,3.13,3.13,0,0,1,.55,1.74C417.26,160.74,417.17,161,417.21,161Z" style="fill:#455a64"></path><path d="M430.21,233.14l-25-6.36h-29.8s-15.45.89-24,8.48a18.89,18.89,0,0,0-4.69,7.67l-13.24,30.31-6.8-38-23.78,3.38L306.7,304A32.13,32.13,0,0,0,332,332.24L345.55,317c1.57,12.41,2.95,23.05,3.09,22.91.33-.33,74.08-4.8,74.08-4.8l-7.47-25.24Z" style="fill:#FF725E"></path><path d="M335.71,148.5a17.05,17.05,0,1,0-24.48,15.17c0,2,0,4.3,0,4.3l14.94.16s.12-2.42.17-4.57A17,17,0,0,0,335.71,148.5Z" style="fill:#FF725E"></path><path d="M320.73,168a1.67,1.67,0,0,1,0-.21l.07-.61c.08-.54.18-1.34.34-2.36s.38-2.27.72-3.7a25.63,25.63,0,0,1,1.6-4.73,16.47,16.47,0,0,1,1.42-2.53,3.21,3.21,0,0,1,1.18-1,1.78,1.78,0,0,1,1.62.07,1.19,1.19,0,0,1,.45,1.56,2.46,2.46,0,0,1-1.33,1.12,4.66,4.66,0,0,1-3.54-.29,4.74,4.74,0,0,1-2.38-2.87,3.65,3.65,0,0,1-.08-2,1.54,1.54,0,0,1,1.56-1.17,1.12,1.12,0,0,1,.87.61,1.61,1.61,0,0,1,.12,1.06,3.36,3.36,0,0,1-1.21,1.68,5.14,5.14,0,0,1-4,1.11,4.42,4.42,0,0,1-3.27-2.49,2.62,2.62,0,0,1-.1-2.07,1.34,1.34,0,0,1,.76-.75,1.28,1.28,0,0,1,1.05.11,1.74,1.74,0,0,1,.71.76,2.45,2.45,0,0,1,.25,1,4.94,4.94,0,0,1-.28,1.95,5.08,5.08,0,0,1-2.43,2.83,5.14,5.14,0,0,1-3.53.45,2.67,2.67,0,0,1-1.53-.83,1.32,1.32,0,0,1-.08-1.64,1.13,1.13,0,0,1,.77-.37,1.48,1.48,0,0,1,.81.17,2.4,2.4,0,0,1,1,1.18c.42.93.76,1.83,1.1,2.69,1.33,3.45,2.26,6.29,2.89,8.26.31,1,.54,1.75.7,2.28l.17.59a1.47,1.47,0,0,1,.05.2,1.38,1.38,0,0,1-.07-.19c-.05-.14-.11-.34-.19-.59-.17-.53-.42-1.29-.74-2.26-.65-2-1.61-4.8-2.95-8.24-.34-.85-.69-1.76-1.1-2.67a2.29,2.29,0,0,0-1-1.1,1,1,0,0,0-1.29,1.58,2.53,2.53,0,0,0,1.43.76,4.94,4.94,0,0,0,3.4-.44,4.89,4.89,0,0,0,2.33-2.73,4.7,4.7,0,0,0,.27-1.86,1.85,1.85,0,0,0-.86-1.58,1.05,1.05,0,0,0-.88-.09,1.1,1.1,0,0,0-.64.63,2.38,2.38,0,0,0,.1,1.9,4.2,4.2,0,0,0,3.11,2.37,4.85,4.85,0,0,0,3.82-1.06,3.17,3.17,0,0,0,1.15-1.57,1.3,1.3,0,0,0-.11-.91.87.87,0,0,0-.7-.5,1.15,1.15,0,0,0-.85.26,1.5,1.5,0,0,0-.49.76,3.33,3.33,0,0,0,.07,1.85,4.6,4.6,0,0,0,2.28,2.76,4.46,4.46,0,0,0,3.39.28,2.23,2.23,0,0,0,1.23-1,1,1,0,0,0-.38-1.33,1.6,1.6,0,0,0-1.46-.07,3.11,3.11,0,0,0-1.12,1,16.67,16.67,0,0,0-1.42,2.51,25.74,25.74,0,0,0-1.62,4.69c-.35,1.42-.57,2.67-.75,3.68s-.29,1.81-.37,2.35c0,.26-.08.47-.1.61A1.76,1.76,0,0,1,320.73,168Z" style="fill:#263238"></path><path d="M325,170.88l-12.83-.13a1,1,0,0,1-.95-1h0a1,1,0,0,1,1-1L325,169a1,1,0,0,1,1,1h0A1,1,0,0,1,325,170.88Z" style="fill:#263238"></path><path d="M324.94,171.72l-12.82-.13a1,1,0,1,0,0,1.92l1.41,0,1.83,3.57a1.25,1.25,0,0,0,1.09.68l4.59.05a1.22,1.22,0,0,0,1.1-.67l1.86-3.52h.95a1,1,0,1,0,0-1.93Z" style="fill:#263238"></path><g style="opacity:0.2"><path d="M307.82,137.34a12.82,12.82,0,0,1,3.44-2.23,9.13,9.13,0,0,1,2.63-.74c.65-.06,1,0,1.05.15.07.31-1.23.75-3,1.9a14,14,0,0,0-6.54,13.7c.22,2.08.69,3.37.4,3.51-.12.06-.41-.18-.77-.72A9.22,9.22,0,0,1,304,150.4a12.66,12.66,0,0,1-.43-4.08,13.36,13.36,0,0,1,1.24-4.92" style="fill:#fff"></path></g><g style="opacity:0.2"><path d="M319,135.29c-1.08,0-2-.32-2.14-.9,0-.28.16-.58.55-.81a3.23,3.23,0,0,1,1.62-.38,3.13,3.13,0,0,1,1.61.43c.38.24.58.55.52.83" style="fill:#fff"></path></g><path d="M321.87,177.47s-.33-.12-.88-.28a6.87,6.87,0,0,0-2.17-.3,7.11,7.11,0,0,0-2.16.38c-.54.18-.85.34-.87.31a2.59,2.59,0,0,1,.82-.45,6.1,6.1,0,0,1,2.21-.45A6.2,6.2,0,0,1,321,177,2.74,2.74,0,0,1,321.87,177.47Z" style="fill:#455a64"></path><path d="M324,173.68c0,.06-2.32.08-5.18,0s-5.18-.1-5.18-.16,2.32-.08,5.19,0S324,173.62,324,173.68Z" style="fill:#455a64"></path><path d="M323.18,175.2a9,9,0,0,1-1.27.11c-.78,0-1.86.08-3.06.08s-2.28,0-3.06-.06a7,7,0,0,1-1.27-.1,7.8,7.8,0,0,1,1.27,0h3.06l3.06,0A7.9,7.9,0,0,1,323.18,175.2Z" style="fill:#455a64"></path><path d="M348.34,291a4.15,4.15,0,0,1-.75-.93,10.22,10.22,0,0,1-1.33-3,18.52,18.52,0,0,1,.63-10.59c1.34-4,3.09-7.31,4.07-9.84.5-1.26.87-2.3,1.1-3a5.23,5.23,0,0,1,.4-1.11,5.07,5.07,0,0,1-.2,1.17c-.18.74-.5,1.8-1,3.09-.9,2.58-2.6,6-3.92,9.87a19.24,19.24,0,0,0-.77,10.34A15.62,15.62,0,0,0,348.34,291Z" style="fill:#263238"></path><path d="M417.4,265.17a1.59,1.59,0,0,1,.14.51c.08.4.18.89.31,1.49.25,1.38.59,3.24,1,5.51.83,4.66,1.94,11.1,3.1,18.23s2.15,13.59,2.79,18.28c.32,2.34.55,4.24.7,5.56.05.61.09,1.11.13,1.52a2.12,2.12,0,0,1,0,.53,1.7,1.7,0,0,1-.12-.52c-.06-.4-.13-.9-.23-1.5-.21-1.39-.5-3.26-.86-5.54-.76-4.74-1.79-11.15-2.94-18.25s-2.18-13.51-2.94-18.24c-.35-2.29-.64-4.16-.85-5.54-.09-.61-.16-1.11-.21-1.51A2.12,2.12,0,0,1,417.4,265.17Z" style="fill:#263238"></path><path d="M332.79,292a19.28,19.28,0,0,1,.17-2.78c.15-1.72.32-4.08.39-6.7s0-5,0-6.71a17.37,17.37,0,0,1,0-2.79,12.56,12.56,0,0,1,.39,2.77,61.06,61.06,0,0,1,.19,6.74,61.72,61.72,0,0,1-.54,6.73A12.38,12.38,0,0,1,332.79,292Z" style="fill:#263238"></path><path d="M434.41,323.44c-.08,0-.23-.66-.71-1.63a8.66,8.66,0,0,0-2.64-3.22,9,9,0,0,0-3.86-1.6c-1.07-.16-1.76-.11-1.77-.19a3.62,3.62,0,0,1,1.82-.17,8,8,0,0,1,6.79,5A3.58,3.58,0,0,1,434.41,323.44Z" style="fill:#263238"></path><path d="M428.92,326.39a24.45,24.45,0,0,0-2.6-3.25,22.94,22.94,0,0,0-3.45-2.33,8,8,0,0,1,6.05,5.58Z" style="fill:#263238"></path><path d="M410.5,326.41c-.05-.14,2.79-1.3,6.24-2.83s6.22-2.85,6.29-2.72a32.23,32.23,0,0,1-6.08,3.2A33.6,33.6,0,0,1,410.5,326.41Z" style="fill:#263238"></path><path d="M313.25,284.25s14.36,68.39,14.36,67.49,72.46,3.11,85.43,3.68l2.7-.66,20.46-18.83L412.67,334l-8.42-48.13Z" style="fill:#e0e0e0"></path><path d="M404.25,285.91c.14,0,2.83,15.38,6,34.39s5.63,34.44,5.49,34.46-2.83-15.36-6-34.38S404.11,285.94,404.25,285.91Z" style="fill:#455a64"></path><path d="M404.51,286s-.15.2-.51.51a13.54,13.54,0,0,0-1.5,1.42c-.25.34-.59.79-.41,1.27s.21,1.14.34,1.77c.22,1.27.47,2.71.75,4.3,1.09,6.42,2.59,15.21,4.24,24.91s3,18.51,4.08,24.94c.49,3.15.89,5.72,1.18,7.57.12.85.22,1.53.3,2.06a3.25,3.25,0,0,1,.06.72,6.16,6.16,0,0,1-.17-.71q-.15-.76-.39-2c-.33-1.84-.78-4.4-1.34-7.54-1.09-6.43-2.59-15.21-4.24-24.92s-3-18.5-4.08-24.93c-.25-1.59-.48-3-.68-4.31-.11-.63-.17-1.24-.29-1.76a1.62,1.62,0,0,1,.49-1.46,12.14,12.14,0,0,1,1.59-1.37A6.37,6.37,0,0,1,404.51,286Z" style="fill:#455a64"></path><path d="M401.86,288.44a5.48,5.48,0,0,1-.89,0l-2.56,0-9.41-.13-31.06-.54-31.06-.52-9.41-.15-2.56-.05A5.2,5.2,0,0,1,314,287s.31,0,.89-.05l2.56,0c2.23,0,5.44,0,9.42,0,7.95,0,18.93.15,31.06.36s23.11.48,31.06.7l9.41.3,2.55.11A7.62,7.62,0,0,1,401.86,288.44Z" style="fill:#455a64"></path><path d="M412.61,336a8.73,8.73,0,0,1,1.39,0l3.8.15c3.22.15,7.68.39,12.67.7l.64,0-.49.42c-.29.25-.6.52-.92.78-4,3.42-7.67,6.48-10.34,8.68l-3.17,2.59a7.22,7.22,0,0,1-1.21.89,8.65,8.65,0,0,1,1.08-1l3.06-2.72c2.61-2.27,6.23-5.38,10.24-8.79.32-.27.63-.54.93-.78l.15.45c-5-.31-9.45-.61-12.66-.85l-3.79-.32A6.47,6.47,0,0,1,412.61,336Z" style="fill:#455a64"></path><path d="M349.56,353.84h0l-.93-11.13a3.47,3.47,0,0,1,4,3.58v-6.9s4.24-.93,5.17,4.64a39.69,39.69,0,0,0,2.25,8.58l2.26,1.23L360.17,341s4.5.4,5.3,4.64a41.25,41.25,0,0,0,2,7.22l7.12,2s-4.08-3.65-3.69-4.84.14-1.12.93-1.29a7.53,7.53,0,0,1,3.8,1c1.3.69,8.8,5.13,8.8,5.13v5.5s-17.46,1.26-21.4.52l-7.64-1.76A8.11,8.11,0,0,1,349.56,353.84Z" style="fill:#ffbe9d"></path><path d="M366.24,317.26a4.84,4.84,0,1,1-5.63-4.51A5.11,5.11,0,0,1,366.24,317.26Z" style="fill:#fafafa"></path><g style="opacity:0.4"><path d="M425.52,316.51a12.93,12.93,0,0,1,9.09.28,9.3,9.3,0,0,1,5.53,7,4.52,4.52,0,0,1-.15,2.13,2.38,2.38,0,0,1-1.46,1.48,2.77,2.77,0,0,1-2.92-1.4,18.72,18.72,0,0,1-1.29-3.21,10.13,10.13,0,0,0-9.05-6.28l.48.13"></path></g><path d="M372.92,230.54c.59-1.88.06-3.9-.27-5.85s-.38-4.17.94-5.63,3.5-1.63,5.46-1.72l24.2-1.05c1.65-.07,3.57,0,4.6,1.26a3.53,3.53,0,0,1,.85,3c-1.24,4.61-.85,8.49,1,11.74" style="fill:#FF725E"></path><path d="M405.71,228.23a6.89,6.89,0,0,1-1.06.89,28.86,28.86,0,0,1-3.18,2,31.07,31.07,0,0,1-11.86,3.62,27.87,27.87,0,0,1-6.87-.13,16.28,16.28,0,0,1-5.34-1.73,9.7,9.7,0,0,1-2.94-2.38,5.55,5.55,0,0,1-.6-.84,1.06,1.06,0,0,1-.16-.32,12,12,0,0,0,3.87,3.22,16.88,16.88,0,0,0,5.24,1.58,29.59,29.59,0,0,0,6.75.09,33.43,33.43,0,0,0,11.74-3.43C404.11,229.38,405.65,228.15,405.71,228.23Z" style="fill:#263238"></path><path d="M389.19,234.83a13.88,13.88,0,0,1-.63-2.66c-.32-1.66-.73-4-1.15-6.5-.21-1.26-.4-2.46-.58-3.59a6.47,6.47,0,0,1,.1-3,3,3,0,0,1,1.27-1.62,1.12,1.12,0,0,1,.73-.2s-.25.1-.62.37a3,3,0,0,0-1,1.56,6.38,6.38,0,0,0,0,2.85c.19,1.12.39,2.32.61,3.58.42,2.54.77,4.84,1,6.52A14.61,14.61,0,0,1,389.19,234.83Z" style="fill:#263238"></path><path d="M401.77,231a9.54,9.54,0,0,1-.45-2.2c-.22-1.36-.48-3.25-.74-5.35s-.42-4-.61-5.34a2,2,0,0,0-.76-1.28c-.3-.21-.52-.23-.51-.27s.24-.09.62.09a2.08,2.08,0,0,1,1,1.37c.31,1.4.5,3.27.78,5.37s.46,4,.58,5.37A9.83,9.83,0,0,1,401.77,231Z" style="fill:#263238"></path><path d="M378.74,217.36a5.51,5.51,0,0,0-1.63,1.36,5.19,5.19,0,0,0-.89,2.1,10.59,10.59,0,0,0-.08,2.84c.18,2.06.36,3.94.44,5.3a9.52,9.52,0,0,1,0,2.21,9.45,9.45,0,0,1-.4-2.18c-.18-1.35-.41-3.21-.6-5.29a10.09,10.09,0,0,1,.13-3,5.16,5.16,0,0,1,1.07-2.23A2.7,2.7,0,0,1,378.74,217.36Z" style="fill:#263238"></path></g><g id="freepik--character-1--inject-9"><path d="M280.06,364.75c0,5.15,3,103.85,3,103.85l-42-.22-7.34-43.86-1.94,43.86H191.42l4.38-108.33Z" style="fill:#455a64"></path><path d="M156.24,323.88l-21.46-32,15.92-12.94,26.93,25s11.59-65,23-68.92l-.89,100.8h0A34.49,34.49,0,0,1,156.24,323.88Z" style="fill:#263238"></path><polygon points="112.3 173.19 116.86 235.49 191.64 378.83 234.87 353.8 161.18 213.71 112.3 173.19" style="fill:#FF725E"></polygon><g style="opacity:0.7000000000000001"><path d="M161.91,214a4.39,4.39,0,0,1-6.39,1.26,11.11,11.11,0,0,1-17.77,11.3,13,13,0,0,1-20.92,8.5l-4.53-61.84Z" style="fill:#fff"></path></g><path d="M114.13,198.25s10.14,6.36,18.19-8.46l-20-16.6Z" style="fill:#FF725E"></path><path d="M208.12,367.12c-.13.07-16-31.31-35.51-70.06s-35.17-70.25-35-70.31,16,31.3,35.51,70.07S208.25,367.06,208.12,367.12Z" style="fill:#fff"></path><path d="M226.09,356.37c-.13.06-16-31.31-35.5-70.07S155.42,216.06,155.54,216s16,31.31,35.51,70.08S226.22,356.3,226.09,356.37Z" style="fill:#fff"></path><path d="M138.17,256.65l-9.7,3.88-2.07,7.81,3.34,13,7.83,8.31,5.29-4.37.33-8,.64-4.47s4.78-1.5,4.9-2.23-.59-3.19-1.32-3.3-5.75,1.75-5.75,1.75,5.93-4.7,5.77-5.46-.81-2.68-2-2.9-10.76,4.3-10.76,4.3l-1.56,3.55-1.36-5.67S140.28,260.52,138.17,256.65Z" style="fill:#b78876"></path><path d="M139.39,275s-.24-.34-.33-1a5.33,5.33,0,0,1,1.67-4.5c.48-.42.84-.57.88-.52a7.47,7.47,0,0,0-2.22,6Z" style="fill:#aa6550"></path><path d="M134.78,273.28a19.32,19.32,0,0,0,.39-2.54,10.72,10.72,0,0,1,.49-2.81,4.13,4.13,0,0,1,.89-1.51,4.41,4.41,0,0,1,1.58-1c2.32-.84,4.41-1.52,5.94-2a13.48,13.48,0,0,1,2.51-.69,13.84,13.84,0,0,1-2.39,1c-1.49.57-3.59,1.32-5.87,2.14a3.93,3.93,0,0,0-1.42.88,3.68,3.68,0,0,0-.81,1.32,11.92,11.92,0,0,0-.57,2.69A5.13,5.13,0,0,1,134.78,273.28Z" style="fill:#aa6550"></path><path d="M132.56,271.53c-.14,0-.11-.88.06-1.91s.42-1.86.56-1.83a4,4,0,0,1-.07,1.91C132.94,270.73,132.69,271.55,132.56,271.53Z" style="fill:#aa6550"></path><path d="M263.7,216.37l-8.5-2.89-31.78,7.29-2.82,2.34L203.78,378.83c7.22,7.45,30,8.93,42.93,6.73Z" style="fill:#FF725E"></path><path d="M264.29,216.67l-4.09-2s-9,39.64-9,65.83-5.66,121.11-5.66,121.11l42.87-1.11V295.59Z" style="fill:#263238"></path><path d="M203.78,403.14l-16.25-4.75,5.67-76.75L192.13,266l8.5-31,20.16-12.46S204.89,393.9,203.78,403.14Z" style="fill:#263238"></path><path d="M237.66,235.53h0a15.65,15.65,0,0,1-14.26-15.65l0-13.92s-12.87-2-13-14.87,2.08-42.39,2.08-42.39h0a44.7,44.7,0,0,1,44.91,5.64l1.91,1.47-4.66,65.25A15.65,15.65,0,0,1,237.66,235.53Z" style="fill:#b78876"></path><path d="M223.43,205.77A30,30,0,0,0,240.2,201s-4,9.25-16.8,8.09Z" style="fill:#aa6550"></path><path d="M257.74,169.13c.22-.09,8.83-2.61,8.55,6.18s-9.05,6.7-9.06,6.45S257.74,169.13,257.74,169.13Z" style="fill:#b78876"></path><path d="M260,178.51s.15.11.4.24a1.5,1.5,0,0,0,1.15.06c.94-.31,1.77-1.76,1.86-3.34a5.09,5.09,0,0,0-.36-2.21,1.78,1.78,0,0,0-1.11-1.21.76.76,0,0,0-.92.39c-.13.24-.08.42-.12.43s-.19-.15-.11-.51a1,1,0,0,1,.37-.54,1.1,1.1,0,0,1,.85-.2A2.15,2.15,0,0,1,263.6,173a5.35,5.35,0,0,1,.45,2.47c-.11,1.77-1.07,3.4-2.36,3.73a1.63,1.63,0,0,1-1.39-.28C260,178.73,260,178.53,260,178.51Z" style="fill:#aa6550"></path><path d="M216.71,168.49a1.83,1.83,0,0,0,1.77,1.85,1.77,1.77,0,0,0,1.9-1.66,1.83,1.83,0,0,0-1.77-1.85A1.77,1.77,0,0,0,216.71,168.49Z" style="fill:#263238"></path><path d="M214.93,166.79c.23.24,1.62-.79,3.6-.78s3.42,1,3.64.75-.13-.54-.76-1a5,5,0,0,0-2.92-.9,4.9,4.9,0,0,0-2.86.92C215,166.25,214.82,166.68,214.93,166.79Z" style="fill:#263238"></path><path d="M236.14,169.32a1.83,1.83,0,0,0,1.77,1.85,1.76,1.76,0,0,0,1.9-1.65,1.85,1.85,0,0,0-1.77-1.86A1.77,1.77,0,0,0,236.14,169.32Z" style="fill:#263238"></path><path d="M234.36,167.16c.23.24,1.62-.79,3.6-.79s3.42,1,3.64.76-.13-.54-.76-1a5,5,0,0,0-2.92-.9,4.9,4.9,0,0,0-2.86.92C234.46,166.62,234.25,167.05,234.36,167.16Z" style="fill:#263238"></path><path d="M227.19,181.82a13.06,13.06,0,0,0-3.21-.58c-.51-.05-1-.15-1.07-.5a2.56,2.56,0,0,1,.33-1.49c.48-1.22,1-2.51,1.5-3.85,2.07-5.47,3.57-10,3.35-10.05s-2.08,4.29-4.15,9.76c-.5,1.35-1,2.64-1.43,3.87a3,3,0,0,0-.27,2,1.27,1.27,0,0,0,.83.73,3.21,3.21,0,0,0,.86.12A13.12,13.12,0,0,0,227.19,181.82Z" style="fill:#263238"></path><path d="M233.85,159.41c.19.54,2.17.29,4.49.57s4.19.91,4.5.43c.14-.24-.19-.74-1-1.26a7.84,7.84,0,0,0-6.84-.76C234.19,158.74,233.77,159.16,233.85,159.41Z" style="fill:#263238"></path><path d="M215.66,161.07c.34.45,1.71,0,3.34,0s3,.3,3.35-.17c.14-.22-.08-.67-.69-1.1a4.82,4.82,0,0,0-5.39.17C215.69,160.39,215.5,160.85,215.66,161.07Z" style="fill:#263238"></path><path d="M206.23,140.58a4.75,4.75,0,0,1,1.75-4.25,3.39,3.39,0,0,1,4.37.33,3.93,3.93,0,0,1,3.37-4.77c2.1-.13,3.89,1.45,5.92,2a9.59,9.59,0,0,0,6-.69c1.91-.77,3.69-1.83,5.61-2.53a16.44,16.44,0,0,1,21,9.66c2.81-.88,6,.55,7.75,2.93a12,12,0,0,1,1.83,8.44,26.28,26.28,0,0,1-1.47,5.77c0,.17,0,.33,0,.49-.13,7.08-.93,15.38-4,15.43-5.26.08-4-9.83-4-9.83-6.46-2.49-4.05-12.16-5.67-13.63s-5-4.88-18.5,2c-5.25,2.68-12.23,2.6-16,1.73l-.34-.06-.08,0-.11-.05a11.89,11.89,0,0,1-3.47-1.47,6.84,6.84,0,0,1-2.85-3.17,3.74,3.74,0,0,1,.74-4A8.24,8.24,0,0,1,206.23,140.58Z" style="fill:#263238"></path><path d="M225.51,187.9a9.34,9.34,0,0,0,1.14,2.25,3,3,0,0,0,2.13,1.23,2.68,2.68,0,0,0,2.26-1.24,4.27,4.27,0,0,0,.63-2.57c0-.82-.41-1.79-1.21-1.88a2,2,0,0,0-1,.22l-4.25,1.72" style="fill:#aa6550"></path><path d="M227.2,191.39a6,6,0,0,0,2.27-.28,3.3,3.3,0,0,0,1.71-1.55,3.44,3.44,0,0,0,0-2.78,2.82,2.82,0,0,0-.37-.63c-.17-.18-.13-.17-.32-.15s-.45.18-.68.27l-.69.29c-.91.36-1.73.68-2.43.94a7.67,7.67,0,0,1-2.31.7,7.67,7.67,0,0,1,2.1-1.19l2.36-1.1.69-.3a5.28,5.28,0,0,1,.77-.32.92.92,0,0,1,.63,0,1.14,1.14,0,0,1,.47.36,3.89,3.89,0,0,1,.35,4.2,3.66,3.66,0,0,1-2.16,1.75,3.52,3.52,0,0,1-1.83.07C227.38,191.58,227.19,191.43,227.2,191.39Z" style="fill:#263238"></path><path d="M249.22,148.74a8.24,8.24,0,0,0,0-1.56,6.08,6.08,0,0,0-2-3.61,8.18,8.18,0,0,0-5.79-1.91,25.19,25.19,0,0,0-7.52,1.68,40.33,40.33,0,0,1-3.89,1.13,20.16,20.16,0,0,1-10.1-.38,19.81,19.81,0,0,1-4-1.68,11.36,11.36,0,0,1-1-.61,1.3,1.3,0,0,1-.33-.25s.49.28,1.39.73a21.64,21.64,0,0,0,4,1.56,20.94,20.94,0,0,0,6.25.74,20.16,20.16,0,0,0,3.69-.47c1.27-.29,2.55-.7,3.86-1.13a24.82,24.82,0,0,1,7.64-1.67,8.38,8.38,0,0,1,6,2.06,6.08,6.08,0,0,1,2,3.8A3.44,3.44,0,0,1,249.22,148.74Z" style="fill:#455a64"></path><path d="M259.22,170.48a1.34,1.34,0,0,1-.17-.27c-.1-.18-.24-.46-.4-.82a16.84,16.84,0,0,1-1-3.2,17.19,17.19,0,0,1-.33-5,43.1,43.1,0,0,1,1.14-6,11.59,11.59,0,0,0,0-5.91,5.86,5.86,0,0,0-1.23-2.24,4.47,4.47,0,0,0-1.85-1.21,4.23,4.23,0,0,0-3.17.08,5.77,5.77,0,0,0-1,.69,2.48,2.48,0,0,1,.92-.82,4.29,4.29,0,0,1,3.33-.21,4.69,4.69,0,0,1,2,1.26,6.24,6.24,0,0,1,1.34,2.35,11.84,11.84,0,0,1,0,6.09,50.27,50.27,0,0,0-1.17,5.93,18,18,0,0,0,.25,4.89,18.65,18.65,0,0,0,.9,3.19C259.06,170.07,259.25,170.46,259.22,170.48Z" style="fill:#455a64"></path><path d="M250.45,147.7a2.92,2.92,0,0,1,0-.52c0-.37,0-.86,0-1.47a16.79,16.79,0,0,0-.59-5.34,9.41,9.41,0,0,0-1.72-3.25,6.65,6.65,0,0,0-3.45-2.28,8.72,8.72,0,0,0-4.6.19,21.67,21.67,0,0,0-4.6,2.09,38,38,0,0,1-4.57,2.35,13.94,13.94,0,0,1-4.7.94,14.52,14.52,0,0,1-4.31-.53,16.41,16.41,0,0,1-3.49-1.44,14.12,14.12,0,0,1-4.14-3.53,9.09,9.09,0,0,1-.84-1.22,2.62,2.62,0,0,1-.25-.45,2.13,2.13,0,0,1,.31.41,11.37,11.37,0,0,0,.89,1.17,14.9,14.9,0,0,0,4.16,3.39,16.67,16.67,0,0,0,3.44,1.37,14.34,14.34,0,0,0,4.22.48,13.72,13.72,0,0,0,4.58-.94,38.75,38.75,0,0,0,4.51-2.33,21.32,21.32,0,0,1,4.69-2.11,9,9,0,0,1,4.79-.17,7,7,0,0,1,3.61,2.41,9.93,9.93,0,0,1,1.73,3.37,16.25,16.25,0,0,1,.48,5.43c0,.64-.09,1.13-.12,1.47A1.74,1.74,0,0,1,250.45,147.7Z" style="fill:#455a64"></path><path d="M264.29,216.67S295,226.48,297,231.8c1.53,4,17.65,52.36,21.12,83.89a23.15,23.15,0,0,1-21,25.49c-20.77,1.91-50.92,4.39-50.92,2.68V317.71L285.31,312l-14.47-42.53Z" style="fill:#263238"></path><path d="M224.93,338.58c4,1,21.32,1,21.32,1V319.07s-7.54-3.21-9.62-5.09-8-12.91-8-12.91a5.91,5.91,0,0,0-2.72,6.32c1,4.51,2.84,5.06,3,6.85,0,0,.16.47.16.49.41,2.5-2,4.71-2,4.71a8.6,8.6,0,0,0-2.63-1.35c-3.64-.43-8,2.18-8,3.64,0,0-.12,3.93,0,4.52s2,1.36,2,1.36-.58,2.62,0,3.79a6.23,6.23,0,0,0,2.53,2S222.67,338,224.93,338.58Z" style="fill:#b78876"></path><path d="M229.13,335.28a12.91,12.91,0,0,1-8.06-1.76c.06-.14,1.78.55,4,1S229.13,335.13,229.13,335.28Z" style="fill:#aa6550"></path><path d="M228.11,329.13a10.14,10.14,0,0,1-4.73.25,9.91,9.91,0,0,1-4.49-1.49c.06-.14,2,.64,4.56,1S228.09,329,228.11,329.13Z" style="fill:#aa6550"></path><path d="M227.51,311.49A7.75,7.75,0,0,1,228.9,314a9.14,9.14,0,0,1,.45,1.42,3.47,3.47,0,0,1,0,1.75,5.22,5.22,0,0,1-2.48,3,6.44,6.44,0,0,1-1.91.75,10.51,10.51,0,0,1-1.88.19c-1.18,0-2.24,0-3.12.05-1.77,0-2.83.26-2.86.19a7.15,7.15,0,0,1,2.84-.56c.89-.07,2-.09,3.12-.16a11.18,11.18,0,0,0,1.79-.21,6.11,6.11,0,0,0,1.76-.7,4.87,4.87,0,0,0,2.28-2.72,3,3,0,0,0,0-1.54,9.39,9.39,0,0,0-.36-1.37C228,312.49,227.44,311.53,227.51,311.49Z" style="fill:#aa6550"></path><path d="M285.79,311.88a9.75,9.75,0,0,1-1.54.33l-4.22.72c-3.57.59-8.5,1.37-14,2.2s-10.41,1.53-14,2-5.82.71-5.82.57l1.54-.26,4.23-.68,14-2.16c5.46-.82,10.4-1.55,14-2l4.24-.56A8.33,8.33,0,0,1,285.79,311.88Z" style="fill:#455a64"></path><path d="M302.38,308a19,19,0,0,1-3.08,0c-1.9-.08-4.52-.23-7.41-.43a14.33,14.33,0,0,0-4,.05,4,4,0,0,0-2.6,1.65,2.83,2.83,0,0,0-.37,2.05c.12.49.31.73.27.76s-.27-.18-.46-.71a2.88,2.88,0,0,1,.24-2.29,4.33,4.33,0,0,1,2.81-1.93,13.89,13.89,0,0,1,4.14-.1c2.9.2,5.51.41,7.4.58A18.48,18.48,0,0,1,302.38,308Z" style="fill:#455a64"></path><path d="M296,315.17a30.65,30.65,0,0,1-5.57-1.37,31.71,31.71,0,0,1-5.42-1.88,32.31,32.31,0,0,1,5.57,1.38A33.33,33.33,0,0,1,296,315.17Z" style="fill:#455a64"></path><path d="M271.72,264c.13,0,3.28,9.9,7,22.21s6.68,22.32,6.54,22.36-3.29-9.9-7-22.21S271.58,264.05,271.72,264Z" style="fill:#455a64"></path><path d="M294.62,232.54c0,.1-1.8.37-4.53,1.43a27,27,0,0,0-15.61,15.71c-1,2.74-1.29,4.56-1.39,4.54a5,5,0,0,1,.15-1.27,22.41,22.41,0,0,1,.9-3.39A25.84,25.84,0,0,1,290,233.62a23.19,23.19,0,0,1,3.38-.92A5.48,5.48,0,0,1,294.62,232.54Z" style="fill:#455a64"></path><path d="M192.54,253.87a6.46,6.46,0,0,1,.06.7c0,.51,0,1.17.06,2,0,1.79.09,4.28.15,7.33.08,6.25.18,14.78.29,24.2s.11,18,.15,24.19c0,3.05,0,5.54,0,7.33l0,2a2.88,2.88,0,0,1,0,.69,3.15,3.15,0,0,1-.06-.69c0-.51,0-1.17-.06-2,0-1.8-.09-4.29-.15-7.34-.08-6.24-.18-14.77-.3-24.19s-.1-17.95-.14-24.2c0-3.05,0-5.54,0-7.33,0-.82,0-1.48,0-2A2.93,2.93,0,0,1,192.54,253.87Z" style="fill:#455a64"></path><path d="M240.89,467.08a4.35,4.35,0,0,1-.21-.75c-.12-.55-.28-1.27-.49-2.17-.42-1.89-1-4.63-1.68-8-1.36-6.78-3.11-16.17-4.77-26.59s-2.93-19.89-3.75-26.76c-.41-3.43-.71-6.21-.9-8.13l-.21-2.22a3.84,3.84,0,0,1,0-.78,6.92,6.92,0,0,1,.14.77c.07.55.17,1.28.3,2.2.26,2,.62,4.73,1.07,8.12.91,6.85,2.23,16.31,3.89,26.72s3.35,19.81,4.62,26.6c.64,3.36,1.15,6.09,1.52,8.05.16.91.3,1.64.4,2.19A4.29,4.29,0,0,1,240.89,467.08Z" style="fill:#263238"></path><path d="M297.17,341.18c0,.14-11.27,1-25.19,1.92s-25.2,1.55-25.21,1.4,11.26-1,25.18-1.92S297.16,341,297.17,341.18Z" style="fill:#455a64"></path></g><g id="freepik--Plants--inject-9"><path d="M93.4,441.19a2.25,2.25,0,0,1,.19-.46c.15-.33.36-.77.62-1.32A34.15,34.15,0,0,0,96,434.12c1.2-4.69,1.62-11.87-.16-20.39A109.07,109.07,0,0,0,92.09,400c-1.6-4.87-3.46-10-5-15.6a60.46,60.46,0,0,1-2.46-17.94c.23-6.34,2.11-12.68,4.17-19S93,335,93.65,328.82a28.43,28.43,0,0,0-3.42-17.26c-2.74-5-6.18-9.35-8.75-13.81a47.92,47.92,0,0,1-5.26-13.27,49.44,49.44,0,0,1-.33-20.57A38.39,38.39,0,0,1,78,256.65a2.84,2.84,0,0,1-.12.48c-.11.35-.25.81-.44,1.4A51.34,51.34,0,0,0,76.14,264a50,50,0,0,0,.53,20.41A47.8,47.8,0,0,0,82,297.48c2.57,4.41,6,8.7,8.81,13.79a29,29,0,0,1,3.53,17.61c-.64,6.32-2.79,12.53-4.84,18.83s-3.93,12.57-4.16,18.81a60.16,60.16,0,0,0,2.4,17.75C89.18,389.82,91,395,92.6,399.86a108.49,108.49,0,0,1,3.73,13.78c1.73,8.59,1.23,15.84-.06,20.55a30.82,30.82,0,0,1-1.94,5.27l-.68,1.3A3.89,3.89,0,0,1,93.4,441.19Z" style="fill:#263238"></path><path d="M85,302.15s-5.23-16.71,4.15-26.5a.58.58,0,0,1,1,.29C90.62,278.7,91.25,287.11,85,302.15Z" style="fill:#FF725E"></path><path d="M88.11,281.22a15.22,15.22,0,0,1-.35,3.08c-.35,2.13-.75,4.62-1.2,7.38s-.83,5.24-1.17,7.37a16.84,16.84,0,0,1-.55,3.05,12.48,12.48,0,0,1,.09-3.11c.18-1.91.51-4.53,1-7.42s1-5.48,1.38-7.35A13.86,13.86,0,0,1,88.11,281.22Z" style="fill:#263238"></path><path d="M91.12,341.58s3.19-17.22,16.06-21.49a.58.58,0,0,1,.74.72C107.07,323.48,103.69,331.21,91.12,341.58Z" style="fill:#FF725E"></path><path d="M103.67,324.54a15.47,15.47,0,0,1-1.75,2.56l-4.5,6-4.48,6A16.39,16.39,0,0,1,91,341.46a13,13,0,0,1,1.54-2.7c1-1.6,2.57-3.77,4.34-6.1s3.42-4.39,4.66-5.85A13.67,13.67,0,0,1,103.67,324.54Z" style="fill:#263238"></path><path d="M87.64,384.77s-1.94-17.4,9.13-25.22a.58.58,0,0,1,.92.47C97.65,362.83,96.66,371.2,87.64,384.77Z" style="fill:#FF725E"></path><path d="M94.71,364.82a15.62,15.62,0,0,1-.94,3l-2.57,7c-1,2.62-1.82,5-2.56,7a17.11,17.11,0,0,1-1.12,2.88,12.41,12.41,0,0,1,.68-3c.53-1.84,1.37-4.35,2.38-7.09s2-5.2,2.76-7A13.61,13.61,0,0,1,94.71,364.82Z" style="fill:#263238"></path><path d="M97.33,428.22s-1.32-17.46,10-24.88a.58.58,0,0,1,.9.51C108.12,406.65,106.84,415,97.33,428.22Z" style="fill:#FF725E"></path><path d="M105.11,408.54a15.49,15.49,0,0,1-1,2.92l-2.83,6.92c-1,2.58-2,4.92-2.8,6.91a17.14,17.14,0,0,1-1.23,2.85,13.37,13.37,0,0,1,.79-3c.6-1.83,1.52-4.31,2.64-7s2.18-5.12,3-6.85A13.8,13.8,0,0,1,105.11,408.54Z" style="fill:#263238"></path><path d="M77.46,287.47s-15.52-8.11-15.82-21.66a.57.57,0,0,1,.9-.5C64.85,266.9,71.24,272.4,77.46,287.47Z" style="fill:#FF725E"></path><path d="M64.86,270.46a16,16,0,0,1,1.93,2.43l4.38,6.05,4.39,6a16.33,16.33,0,0,1,1.77,2.55,13.31,13.31,0,0,1-2.13-2.26c-1.23-1.48-2.86-3.57-4.56-5.94s-3.19-4.56-4.23-6.18A13.89,13.89,0,0,1,64.86,270.46Z" style="fill:#263238"></path><path d="M94.13,323.36s-16-7.14-17.11-20.65a.58.58,0,0,1,.87-.56C80.29,303.61,87,308.7,94.13,323.36Z" style="fill:#FF725E"></path><path d="M80.52,307.16a15.24,15.24,0,0,1,2.08,2.3l4.73,5.78L92.08,321A16,16,0,0,1,94,323.43a12.79,12.79,0,0,1-2.26-2.13c-1.32-1.39-3.07-3.38-4.91-5.65s-3.47-4.36-4.6-5.9A14.48,14.48,0,0,1,80.52,307.16Z" style="fill:#263238"></path><path d="M84.93,363.41s-11-13.65-5.82-26.19a.58.58,0,0,1,1-.09C81.61,339.51,85.27,347.11,84.93,363.41Z" style="fill:#FF725E"></path><path d="M80.19,342.78a15.09,15.09,0,0,1,.8,3c.46,2.1,1,4.57,1.59,7.29s1.14,5.19,1.61,7.29a17.54,17.54,0,0,1,.6,3.05,13.16,13.16,0,0,1-1.05-2.93c-.54-1.84-1.19-4.41-1.8-7.27s-1.1-5.45-1.4-7.35A15.28,15.28,0,0,1,80.19,342.78Z" style="fill:#263238"></path><path d="M95.81,410.53S79.94,403.11,79,389.59a.58.58,0,0,1,.88-.54C82.3,390.54,88.93,395.75,95.81,410.53Z" style="fill:#FF725E"></path><path d="M82.47,394.09a15.86,15.86,0,0,1,2,2.34l4.63,5.86,4.66,5.83a16.89,16.89,0,0,1,1.88,2.47,12.31,12.31,0,0,1-2.23-2.16c-1.3-1.42-3-3.44-4.82-5.74s-3.39-4.41-4.49-6A12.92,12.92,0,0,1,82.47,394.09Z" style="fill:#263238"></path><path d="M127.41,341.67a1.65,1.65,0,0,1,0,.39q0,.45,0,1.11c-.05,1.06-.11,2.48-.19,4.25-.2,3.73-.49,8.94-.83,15.17h0v0C125.24,369,122,376,117.68,382.8c-3.18,5-6.51,9.59-9.39,13.84a99.71,99.71,0,0,0-7,11.64A49.15,49.15,0,0,0,98,416.82c-.28,1-.49,1.86-.61,2.42a5,5,0,0,1-.23.84,4.38,4.38,0,0,1,.1-.87c.08-.57.25-1.4.49-2.46a44.78,44.78,0,0,1,3.13-8.67,92.6,92.6,0,0,1,7-11.78c2.86-4.27,6.17-8.85,9.34-13.85,4.31-6.78,7.52-13.7,8.7-19.93v0c.44-6.22.8-11.42,1.07-15.15.14-1.77.25-3.19.34-4.24,0-.44.08-.81.11-1.11S127.39,341.67,127.41,341.67Z" style="fill:#263238"></path><path d="M118,381.5s6.72-16.17-1.73-26.77a.58.58,0,0,0-1,.2C114.47,357.63,113.08,366,118,381.5Z" style="fill:#FF725E"></path><path d="M116.74,360.37a14.27,14.27,0,0,1,.53,3.06c.24,1.9.5,4.53.71,7.45s.31,5.56.31,7.48a12.27,12.27,0,0,1-.19,3.1,17.31,17.31,0,0,1-.27-3.09c-.15-2.14-.31-4.66-.5-7.45s-.37-5.3-.52-7.45A15.16,15.16,0,0,1,116.74,360.37Z" style="fill:#263238"></path><g style="opacity:0.30000000000000004"><path d="M118,381.5s6.72-16.17-1.73-26.77a.58.58,0,0,0-1,.2C114.47,357.63,113.08,366,118,381.5Z"></path></g><path d="M97.15,420.47s5.39-16.66-3.9-26.54a.58.58,0,0,0-1,.28C91.73,397,91,405.37,97.15,420.47Z" style="fill:#FF725E"></path><path d="M94.22,399.51a13.89,13.89,0,0,1,.78,3c.39,1.87.87,4.48,1.31,7.36s.76,5.52.91,7.43a12.92,12.92,0,0,1,.07,3.11,16,16,0,0,1-.53-3.05c-.31-2.13-.69-4.63-1.1-7.39s-.8-5.25-1.12-7.38A15.41,15.41,0,0,1,94.22,399.51Z" style="fill:#263238"></path><g style="opacity:0.30000000000000004"><path d="M97.15,420.47s5.39-16.66-3.9-26.54a.58.58,0,0,0-1,.28C91.73,397,91,405.37,97.15,420.47Z"></path></g><path d="M126.52,361.73s14.35-10,12.9-23.52a.58.58,0,0,0-1-.37C136.37,339.72,130.74,346,126.52,361.73Z" style="fill:#FF725E"></path><g style="opacity:0.30000000000000004"><path d="M126.52,361.73s14.35-10,12.9-23.52a.58.58,0,0,0-1-.37C136.37,339.72,130.74,346,126.52,361.73Z"></path></g><path d="M136.82,343.25a13.91,13.91,0,0,1-1.19,2.86c-.82,1.74-2,4.1-3.39,6.67s-2.73,4.86-3.76,6.48a13.16,13.16,0,0,1-1.82,2.52,16.7,16.7,0,0,1,1.42-2.76l3.58-6.55,3.56-6.57A15.34,15.34,0,0,1,136.82,343.25Z" style="fill:#263238"></path><path d="M102.94,404s17.3-2.7,21.94-15.43a.58.58,0,0,0-.7-.77C121.48,388.52,113.66,391.68,102.94,404Z" style="fill:#FF725E"></path><g style="opacity:0.30000000000000004"><path d="M102.94,404s17.3-2.7,21.94-15.43a.58.58,0,0,0-.7-.77C121.48,388.52,113.66,391.68,102.94,404Z"></path></g><path d="M120.33,391.89a14.43,14.43,0,0,1-2.33,2.05c-1.5,1.2-3.61,2.8-6,4.49s-4.58,3.17-6.22,4.16a12.84,12.84,0,0,1-2.75,1.46,17.29,17.29,0,0,1,2.5-1.84l6.09-4.31,6.09-4.33A15.26,15.26,0,0,1,120.33,391.89Z" style="fill:#263238"></path><polygon points="82.46 435.8 87.42 468.36 107.25 468.32 113.92 435.8 82.46 435.8" style="fill:#455a64"></polygon><path d="M111,448.36s0,.05-.17.12a5.39,5.39,0,0,1-.52.3,7.32,7.32,0,0,1-2.21.66,8.3,8.3,0,0,1-3.65-.34,7.73,7.73,0,0,1-3.92-2.85,5.52,5.52,0,0,1-.92-2.72,3,3,0,0,1,1.35-2.8,3.22,3.22,0,0,1,3.32.27,4.87,4.87,0,0,1,1.9,3,13.27,13.27,0,0,1,.25,3.68,12.55,12.55,0,0,1-.81,3.76,8.35,8.35,0,0,1-2.3,3.28,6.47,6.47,0,0,1-3.81,1.59,7,7,0,0,1-4-1.15,11.88,11.88,0,0,1-3-2.68,6.54,6.54,0,0,1-1.5-3.58,4.12,4.12,0,0,1,1.41-3.44,3.21,3.21,0,0,1,3.51-.22,3.77,3.77,0,0,1,2,2.66A5.09,5.09,0,0,1,95.54,453a7,7,0,0,1-4.78.69,11.07,11.07,0,0,1-3.41-1.33,17.07,17.07,0,0,1-1.91-1.3,3.61,3.61,0,0,1-.62-.52,4.88,4.88,0,0,1,.68.43c.44.29,1.08.73,2,1.2a10.91,10.91,0,0,0,3.36,1.22,6.75,6.75,0,0,0,4.54-.72A4.73,4.73,0,0,0,97.61,448a3.31,3.31,0,0,0-1.81-2.31,2.71,2.71,0,0,0-3,.18,3.65,3.65,0,0,0-1.2,3,6,6,0,0,0,1.4,3.27,11.32,11.32,0,0,0,2.83,2.55,6.55,6.55,0,0,0,3.65,1.07,5.86,5.86,0,0,0,3.49-1.47,7.72,7.72,0,0,0,2.16-3.06,11.91,11.91,0,0,0,.78-3.6,12.44,12.44,0,0,0-.22-3.52A4.35,4.35,0,0,0,104,441.4a2.73,2.73,0,0,0-2.83-.28,2.55,2.55,0,0,0-1.15,2.39,5.16,5.16,0,0,0,.82,2.53,7.4,7.4,0,0,0,3.7,2.77,8.18,8.18,0,0,0,3.52.42A9.5,9.5,0,0,0,111,448.36Z" style="fill:#263238"></path><path d="M622.54,441c-7.84-4.55-12-15.13-12.35-23.79s3.29-17.7,10.39-22.66c7.48-5.23,18.13-5.13,25.82-.21s12.19,14.21,11.84,23.33a30.93,30.93,0,0,1-12.67,23.24" style="fill:#FF725E"></path><path d="M635.06,441.83a10.08,10.08,0,0,1-.14-2c0-1.41-.09-3.23-.16-5.4-.11-4.56-.29-10.86-.6-17.81s-.68-13.24-1-17.79c-.13-2.17-.24-4-.32-5.39a10.08,10.08,0,0,1,0-2,10.17,10.17,0,0,1,.31,2c.16,1.27.35,3.11.56,5.38.41,4.55.87,10.84,1.18,17.8s.4,13.27.38,17.84c0,2.28,0,4.13-.08,5.4A10.08,10.08,0,0,1,635.06,441.83Z" style="fill:#fff"></path><path d="M612.51,415.25c0,.2-1.27.26-2.8.14s-2.75-.39-2.73-.6,1.27-.26,2.79-.14S612.52,415.05,612.51,415.25Z" style="fill:#263238"></path><path d="M612.94,407.48c-.09.18-1.16-.11-2.41-.67s-2.2-1.15-2.12-1.34,1.17.12,2.41.67S613,407.29,612.94,407.48Z" style="fill:#263238"></path><path d="M616.93,401.71c-.1.17-1.31-.4-2.57-1.45s-2.06-2.13-1.91-2.26,1.15.69,2.37,1.7S617.05,401.54,616.93,401.71Z" style="fill:#263238"></path><path d="M621,396.27c-.19.08-.77-.83-1.3-2s-.81-2.24-.63-2.33.77.83,1.3,2S621.14,396.19,621,396.27Z" style="fill:#263238"></path><path d="M627.26,392.41c-.18.08-.8-.88-1.22-2.22s-.45-2.5-.25-2.53.55,1,1,2.31S627.45,392.32,627.26,392.41Z" style="fill:#263238"></path><path d="M637.79,388.06c.19.06.07.89-.26,1.84s-.77,1.67-1,1.6-.07-.89.26-1.84S637.6,388,637.79,388.06Z" style="fill:#263238"></path><path d="M645.6,391.41c.13.15-.37.83-1.12,1.53s-1.48,1.15-1.62,1,.36-.84,1.12-1.54S645.46,391.26,645.6,391.41Z" style="fill:#263238"></path><path d="M652.47,395.85c.11.16-.5.78-1.36,1.36s-1.67.93-1.78.76.5-.78,1.36-1.37S652.36,395.68,652.47,395.85Z" style="fill:#263238"></path><path d="M657.35,402.46c.08.19-.88.78-2.15,1.32s-2.36.83-2.44.64.88-.77,2.15-1.32S657.27,402.28,657.35,402.46Z" style="fill:#263238"></path><path d="M659.27,409.68c0,.2-.95.49-2.18.64s-2.26.12-2.28-.09,1-.48,2.18-.64S659.25,409.48,659.27,409.68Z" style="fill:#263238"></path><path d="M660.27,418.57c-.08.18-1.12-.09-2.33-.62s-2.12-1.1-2-1.28,1.13.09,2.34.61S660.35,418.38,660.27,418.57Z" style="fill:#263238"></path><path d="M659.39,426.19c-.06.19-1.38-.13-2.76-1s-2.2-2-2.06-2.12,1.15.65,2.46,1.5S659.47,426,659.39,426.19Z" style="fill:#263238"></path><path d="M655.42,433.13c-.12.16-1.17-.46-2.18-1.55s-1.55-2.17-1.38-2.28.95.75,1.92,1.78S655.55,433,655.42,433.13Z" style="fill:#263238"></path><path d="M617.73,434c.09.18-1,.94-2.46,1.69s-2.71,1.23-2.81,1.05,1-.94,2.47-1.7S617.64,433.77,617.73,434Z" style="fill:#263238"></path><path d="M614.29,427.67c.08.18-.8.77-2,1.3s-2.19.81-2.28.63.8-.77,2-1.3S614.2,427.48,614.29,427.67Z" style="fill:#263238"></path><path d="M611.75,422.11c0,.2-1.06.52-2.43.71s-2.5.19-2.53,0,1.06-.52,2.43-.71S611.73,421.91,611.75,422.11Z" style="fill:#263238"></path><path d="M620.06,419c.06.19-1,.69-2.42.85s-2.56-.09-2.55-.29,1.13-.29,2.47-.44S620,418.84,620.06,419Z" style="fill:#263238"></path><path d="M627,412.18c.06.19-.78.62-1.92.73s-2-.14-2-.34.9-.29,2-.39S626.89,412,627,412.18Z" style="fill:#263238"></path><path d="M628.27,406.68c-.07.2-1,.05-2-.31s-1.87-.82-1.8-1,1-.05,2,.31S628.34,406.49,628.27,406.68Z" style="fill:#263238"></path><path d="M630.8,401.13c-.14.14-.77-.28-1.22-1.06s-.49-1.53-.3-1.58.54.53.94,1.22S631,401,630.8,401.13Z" style="fill:#263238"></path><path d="M627.75,423.88c0,.2-.74.57-1.77.82a6.4,6.4,0,0,1-1.48.21l-.15-.42c.27-.05.44,0,.47,0s-.07.21-.29.37l-.14-.43a7.36,7.36,0,0,1,1.42-.49C626.83,423.73,627.7,423.69,627.75,423.88Z" style="fill:#263238"></path><path d="M629.17,433.63c.08.19-.93.76-2.25,1.28s-2.45.79-2.53.6.94-.76,2.26-1.28S629.1,433.44,629.17,433.63Z" style="fill:#263238"></path><path d="M621.38,429.3c.07.19-.61.6-1.5.9s-1.68.4-1.74.21.6-.6,1.5-.9S621.32,429.11,621.38,429.3Z" style="fill:#263238"></path><path d="M622,409.46c-.05.2-1.22.08-2.58-.4s-2.34-1.13-2.25-1.31,1.18.15,2.5.62S622,409.26,622,409.46Z" style="fill:#263238"></path><path d="M640.83,407.31c.11.17-.55.8-1.48,1.41s-1.76,1-1.87.8.54-.8,1.47-1.41S640.72,407.14,640.83,407.31Z" style="fill:#263238"></path><path d="M641.85,417.09c0,.2-.65.51-1.55.7s-1.65.18-1.69,0,.65-.51,1.55-.7S641.81,416.9,641.85,417.09Z" style="fill:#263238"></path><path d="M643.05,428.1c-.09.18-1.09-.1-2.24-.63s-2-1.11-1.92-1.3,1.09.1,2.23.63S643.13,427.91,643.05,428.1Z" style="fill:#263238"></path><path d="M640.52,438.81c-.15.13-.8-.4-1.44-1.18s-1-1.53-.89-1.65.81.4,1.45,1.18S640.68,438.68,640.52,438.81Z" style="fill:#263238"></path><path d="M640,400.1c.12.16-.31.7-1,1.07s-1.42.39-1.47.19.48-.52,1.14-.85S639.88,399.94,640,400.1Z" style="fill:#263238"></path><path d="M649.25,410c.06.19-.79.66-2,.82s-2.12-.05-2.11-.25.92-.32,2-.48S649.18,409.78,649.25,410Z" style="fill:#263238"></path><path d="M647.41,401.11c.09.18-.76.78-2,1.17s-2.25.39-2.28.19.91-.52,2.06-.89S647.31,400.93,647.41,401.11Z" style="fill:#263238"></path><path d="M651.26,423.7c0,.19-1.45.32-3.2,0s-3.07-.94-3-1.13,1.44.11,3.13.41S651.27,423.49,651.26,423.7Z" style="fill:#263238"></path><path d="M647.83,436.57c-.12.16-1.19-.47-2.26-1.55s-1.69-2.14-1.53-2.26,1,.71,2.06,1.74S648,436.41,647.83,436.57Z" style="fill:#263238"></path><path d="M632.74,390.64a33.1,33.1,0,0,0-6.45,5.09,31.52,31.52,0,0,0-8,17.74,39.89,39.89,0,0,0,.49,10.87,80.39,80.39,0,0,0,2,8.73c.7,2.45,1.35,4.42,1.78,5.79a13.07,13.07,0,0,1,.62,2.14,13.2,13.2,0,0,1-.89-2.05c-.51-1.33-1.24-3.28-2-5.73a74.13,74.13,0,0,1-2.21-8.76,39.2,39.2,0,0,1-.55-11.07,31,31,0,0,1,8.39-18,23,23,0,0,1,4.81-3.76,13.31,13.31,0,0,1,1.47-.76C632.54,390.69,632.72,390.61,632.74,390.64Z" style="fill:#fff"></path><path d="M642.76,441.47a81.32,81.32,0,0,0,3.3-7.89,44.64,44.64,0,0,0,2-20.31,38.11,38.11,0,0,0-3.13-10.82,25.49,25.49,0,0,0-5.34-7.44,19.61,19.61,0,0,0-5.23-3.3c-1.36-.57-2.17-.7-2.16-.76s.21,0,.6,0a11.63,11.63,0,0,1,1.66.45,18.23,18.23,0,0,1,5.47,3.18,25.17,25.17,0,0,1,5.61,7.54,37.39,37.39,0,0,1,3.25,11,43.32,43.32,0,0,1-2.21,20.58c-.42,1.26-.95,2.35-1.35,3.33s-.87,1.77-1.23,2.43A13.2,13.2,0,0,1,642.76,441.47Z" style="fill:#fff"></path><polygon points="614.29 439.73 654.81 439.73 655.06 447.84 614.29 447.84 614.29 439.73" style="fill:#263238"></polygon><polygon points="617.73 443.79 620.06 468.55 649.68 468.55 652.06 444.06 617.73 443.79" style="fill:#263238"></polygon><path d="M655.06,447.94c0,.2-9.13.37-20.38.37s-20.38-.17-20.38-.37,9.12-.37,20.38-.37S655.06,447.74,655.06,447.94Z" style="fill:#455a64"></path><path d="M650.94,455.48a6.53,6.53,0,0,1-.87,1.55,22.85,22.85,0,0,1-3.14,3.71l-.19.18-.18-.2a59,59,0,0,0-7.94-7l.44,0-3.52,3.09-4.16,3.63-.23.2-.23-.2-6.77-5.69.4,0-3.5,4.27a9.71,9.71,0,0,1-1.38,1.51,10.62,10.62,0,0,1,1.13-1.7l3.31-4.42.17-.22.23.18,6.86,5.56h-.46l4.15-3.64,3.53-3.08.22-.19.23.17a51.64,51.64,0,0,1,7.9,7.18l-.37,0A41.06,41.06,0,0,0,650.94,455.48Z" style="fill:#455a64"></path></g></svg>